<?xml version="1.0" encoding="UTF-8"?>
<svg xmlns="http://www.w3.org/2000/svg" xmlns:xlink="http://www.w3.org/1999/xlink" width="64px" height="64px" viewBox="0 0 64 64" version="1.1">
<g id="surface1">
<path style=" stroke:none;fill-rule:nonzero;fill:rgb(0%,0%,0%);fill-opacity:1;" d="M 2 4.398438 C 2 5.5 2.898438 6 4.898438 6 C 6.898438 6 8 6.601562 8.398438 7.699219 C 8.601562 8.699219 10.300781 15.5 12 22.699219 L 15.199219 36 L 12.601562 39.101562 C 9.398438 42.898438 9.398438 43.5 12.5 46.601562 C 14.5 48.601562 14.800781 49.5 14 51 C 9.898438 58.699219 19.101562 64.699219 24.398438 57.699219 C 26.398438 55 26.398438 54.800781 24.800781 51.898438 L 23.101562 49 L 49 49 L 47.398438 51.5 C 45.300781 54.699219 46.300781 58.699219 49.5 60.199219 C 55.199219 62.800781 60.5 57.800781 58.300781 51.898438 C 57.601562 50.199219 57.601562 48.800781 58.101562 48.398438 C 61.199219 46.5 57 46 37.101562 46 C 18.898438 46 15 45.699219 14 44.5 C 13 43.300781 13 42.699219 14 41.5 C 15 40.300781 18.699219 40 35 40 C 49.699219 40 55 39.699219 55.800781 38.699219 C 57.101562 37.101562 62.898438 14.300781 62.199219 13.5 C 61.898438 13.199219 59.101562 13 55.898438 13 C 50.5 13 50.101562 12.800781 48.101562 9.601562 C 46.199219 6.5 40.199219 3 36.800781 3 C 34 3 27.300781 7.199219 25.601562 10 C 23.898438 12.898438 23.601562 13.101562 18.199219 12.800781 L 12.601562 12.5 L 11.5 8 C 10.398438 3.601562 10.300781 3.5 6.199219 3.199219 C 2.898438 3 2 3.199219 2 4.398438 Z M 44.300781 10.101562 C 48 14.101562 48 18.898438 44.101562 23.199219 C 40 27.898438 34 27.898438 29.898438 23.199219 C 26.199219 19 26 14.300781 29.5 10.101562 C 33.699219 5.199219 39.699219 5.199219 44.300781 10.101562 Z M 24 18.101562 C 24 24.398438 32.800781 30.898438 39.398438 29.398438 C 45.398438 28.101562 50 23.199219 50 18 C 50 16.300781 50.601562 16 54.5 16 C 58.898438 16 59 16.101562 58.398438 18.699219 C 57.5 23 56.101562 28.601562 55 33 L 53.898438 37 L 18.300781 37 L 16.199219 27.601562 C 15 22.398438 14 17.601562 14 17.101562 C 14 16.5 16.101562 16 19 16 C 23.398438 16 24 16.199219 24 18.101562 Z M 22 53.101562 C 22.898438 54.601562 22.800781 55.5 21.898438 56.601562 C 20.101562 58.800781 16.601562 57.898438 16.199219 55.101562 C 15.601562 51.101562 20.101562 49.5 22 53.101562 Z M 55 52.5 C 56.800781 54.699219 55.800781 57.5 53.101562 57.5 C 49.898438 57.5 48.199219 54.699219 49.898438 52.601562 C 51.601562 50.601562 53.398438 50.601562 55 52.5 Z M 55 52.5 "/>
<path style=" stroke:none;fill-rule:nonzero;fill:rgb(0%,0%,0%);fill-opacity:1;" d="M 35.800781 12.199219 C 35.601562 13.601562 34.601562 14.601562 33.101562 15 C 29.601562 15.800781 29.398438 17.800781 32.699219 18.199219 C 34.699219 18.398438 35.601562 19.101562 35.800781 20.800781 C 36.199219 23.601562 38.398438 23.199219 38.800781 20.199219 C 39.101562 18.601562 39.800781 18 41.699219 18 C 44.699219 18 44.300781 15.601562 41.199219 15.199219 C 40 15 39 14 38.800781 12.800781 C 38.398438 9.800781 36.199219 9.398438 35.800781 12.199219 Z M 35.800781 12.199219 "/>
</g>
</svg>
